<?xml version="1.0" encoding="UTF-8"?>
<svg xmlns="http://www.w3.org/2000/svg" width="1600" height="900" viewBox="0 0 1600 900">
  <rect width="100%" height="100%" fill="#F4F1E8"/>
  <rect x="32" y="32" width="1536" height="836" rx="28" fill="#FFFDFC" stroke="#D8D1C4"/>
  <text x="80" y="110" font-family="Pretendard, 'Apple SD Gothic Neo', 'Malgun Gothic', sans-serif" font-size="42" font-weight="700" fill="#1F1F1B">대표 모델 협박 비율</text>
  <text x="80" y="154" font-family="Pretendard, 'Apple SD Gothic Neo', 'Malgun Gothic', sans-serif" font-size="22" fill="#6B655C">원문 Figure 1의 다섯 모델을 한국어 SVG로 재구성</text>
  <rect x="72" y="196" width="1456" height="620" rx="24" fill="#FAF7F1" stroke="#E8E0D3"/><line x1="320" y1="216" x2="320" y2="656" stroke="#C9C1B6" stroke-width="2"/><line x1="320" y1="216" x2="320" y2="656" stroke="#ECE6DB" stroke-width="2"/><text x="320" y="698" font-family="Pretendard, 'Apple SD Gothic Neo', 'Malgun Gothic', sans-serif" font-size="20" fill="#766F66">0</text><line x1="532" y1="216" x2="532" y2="656" stroke="#ECE6DB" stroke-width="2"/><text x="532" y="698" font-family="Pretendard, 'Apple SD Gothic Neo', 'Malgun Gothic', sans-serif" font-size="20" fill="#766F66">20</text><line x1="744" y1="216" x2="744" y2="656" stroke="#ECE6DB" stroke-width="2"/><text x="744" y="698" font-family="Pretendard, 'Apple SD Gothic Neo', 'Malgun Gothic', sans-serif" font-size="20" fill="#766F66">40</text><line x1="956" y1="216" x2="956" y2="656" stroke="#ECE6DB" stroke-width="2"/><text x="956" y="698" font-family="Pretendard, 'Apple SD Gothic Neo', 'Malgun Gothic', sans-serif" font-size="20" fill="#766F66">60</text><line x1="1168" y1="216" x2="1168" y2="656" stroke="#ECE6DB" stroke-width="2"/><text x="1168" y="698" font-family="Pretendard, 'Apple SD Gothic Neo', 'Malgun Gothic', sans-serif" font-size="20" fill="#766F66">80</text><line x1="1380" y1="216" x2="1380" y2="656" stroke="#ECE6DB" stroke-width="2"/><text x="140" y="460" transform="rotate(-90 140 460)" font-family="Pretendard, 'Apple SD Gothic Neo', 'Malgun Gothic', sans-serif" font-size="24" fill="#5C564E">모델</text><text x="320" y="750" font-family="Pretendard, 'Apple SD Gothic Neo', 'Malgun Gothic', sans-serif" font-size="24" fill="#5C564E">비율(%)</text><text x="302" y="268" text-anchor="end" font-family="Pretendard, 'Apple SD Gothic Neo', 'Malgun Gothic', sans-serif" font-size="24" fill="#2E2A26">Claude Opus 4</text><rect x="320" y="240" width="1060" height="38" rx="19" fill="#EFE8DD"/><rect x="320" y="240" width="1017.5999999999999" height="38" rx="19" fill="#6957D2"/><text x="1355.6" y="268" font-family="Pretendard, 'Apple SD Gothic Neo', 'Malgun Gothic', sans-serif" font-size="22" font-weight="600" fill="#2E2A26">96</text><text x="302" y="356" text-anchor="end" font-family="Pretendard, 'Apple SD Gothic Neo', 'Malgun Gothic', sans-serif" font-size="24" fill="#2E2A26">DeepSeek-R1</text><rect x="320" y="328" width="1060" height="38" rx="19" fill="#EFE8DD"/><rect x="320" y="328" width="837.4000000000001" height="38" rx="19" fill="#6957D2"/><text x="1175.4" y="356" font-family="Pretendard, 'Apple SD Gothic Neo', 'Malgun Gothic', sans-serif" font-size="22" font-weight="600" fill="#2E2A26">79</text><text x="302" y="444" text-anchor="end" font-family="Pretendard, 'Apple SD Gothic Neo', 'Malgun Gothic', sans-serif" font-size="24" fill="#2E2A26">Gemini 2.5 Pro</text><rect x="320" y="416" width="1060" height="38" rx="19" fill="#EFE8DD"/><rect x="320" y="416" width="1007" height="38" rx="19" fill="#6957D2"/><text x="1345" y="444" font-family="Pretendard, 'Apple SD Gothic Neo', 'Malgun Gothic', sans-serif" font-size="22" font-weight="600" fill="#2E2A26">95</text><text x="302" y="532" text-anchor="end" font-family="Pretendard, 'Apple SD Gothic Neo', 'Malgun Gothic', sans-serif" font-size="24" fill="#2E2A26">GPT-4.1</text><rect x="320" y="504" width="1060" height="38" rx="19" fill="#EFE8DD"/><rect x="320" y="504" width="848" height="38" rx="19" fill="#6957D2"/><text x="1186" y="532" font-family="Pretendard, 'Apple SD Gothic Neo', 'Malgun Gothic', sans-serif" font-size="22" font-weight="600" fill="#2E2A26">80</text><text x="302" y="620" text-anchor="end" font-family="Pretendard, 'Apple SD Gothic Neo', 'Malgun Gothic', sans-serif" font-size="24" fill="#2E2A26">Grok-3-Beta</text><rect x="320" y="592" width="1060" height="38" rx="19" fill="#EFE8DD"/><rect x="320" y="592" width="848" height="38" rx="19" fill="#6957D2"/><text x="1186" y="620" font-family="Pretendard, 'Apple SD Gothic Neo', 'Malgun Gothic', sans-serif" font-size="22" font-weight="600" fill="#2E2A26">80</text><text x="80" y="850" font-family="Pretendard, 'Apple SD Gothic Neo', 'Malgun Gothic', sans-serif" font-size="20" fill="#6B655C">비율은 100개 샘플 기준이다.</text>
</svg>