<svg xmlns="http://www.w3.org/2000/svg" width="1280" height="760" viewBox="0 0 1280 760" role="img" aria-labelledby="title desc">
  <title id="title">How AI assistance impacts coding speed and skill formation</title>
  <desc id="desc">Two mini charts compare task time and quiz score for AI versus no AI, alongside a scatter plot of six AI interaction patterns by completion time and skill quiz score.</desc>
  <rect width="1280" height="760" fill="#F2EFE7"/>
  <text x="640" y="66" text-anchor="middle" fill="#141413" font-family="Helvetica, Arial, sans-serif" font-size="56" font-weight="700">How AI assistance impacts coding speed and skill formation</text>

  <g transform="translate(24 104)">
    <rect width="498" height="604" rx="30" fill="#FBFAF7"/>
    <text x="28" y="48" fill="#6B675F" font-family="Helvetica, Arial, sans-serif" font-size="22" font-weight="700">AI assistance: treatment effect on</text>
    <text x="28" y="76" fill="#6B675F" font-family="Helvetica, Arial, sans-serif" font-size="22" font-weight="700">coding speed and knowledge score</text>

    <g transform="translate(56 140)">
      <text x="116" y="-18" text-anchor="middle" fill="#6B675F" font-family="Helvetica, Arial, sans-serif" font-size="20">p = 0.391</text>
      <path d="M86 -4h60M86 -4v10M146 -4v10" stroke="#8A847A" stroke-width="2"/>
      <rect x="44" y="0" width="150" height="338" rx="12" fill="#F9F8F3" stroke="#7A766E" stroke-width="2.5"/>
      <g fill="#6B675F" font-family="Helvetica, Arial, sans-serif" font-size="18">
        <text x="22" y="338">21</text>
        <text x="22" y="296">22</text>
        <text x="22" y="254">23</text>
        <text x="22" y="212">24</text>
        <text x="22" y="170">25</text>
        <text x="22" y="128">26</text>
        <text x="22" y="86">27</text>
        <text x="22" y="44">28</text>
      </g>
      <g stroke="#A19B90" stroke-width="2">
        <path d="M44 42h150"/>
        <path d="M44 84h150"/>
        <path d="M44 126h150"/>
        <path d="M44 168h150"/>
        <path d="M44 210h150"/>
        <path d="M44 252h150"/>
        <path d="M44 294h150"/>
      </g>
      <text x="7" y="184" transform="rotate(-90 7 184)" fill="#6B675F" font-family="Helvetica, Arial, sans-serif" font-size="18">Task time (minutes)</text>
      <path d="M84 64v204" stroke="#78B7F0" stroke-width="3"/>
      <path d="M72 64h24M72 268h24" stroke="#78B7F0" stroke-width="3"/>
      <circle cx="84" cy="190" r="7" fill="#78B7F0"/>
      <path d="M152 22v246" stroke="#F6AE45" stroke-width="3"/>
      <path d="M140 22h24M140 268h24" stroke="#F6AE45" stroke-width="3"/>
      <circle cx="152" cy="118" r="7" fill="#F6AE45"/>
      <text x="84" y="364" text-anchor="middle" fill="#78B7F0" font-family="Helvetica, Arial, sans-serif" font-size="20" font-weight="700">AI</text>
      <text x="152" y="364" text-anchor="middle" fill="#F6AE45" font-family="Helvetica, Arial, sans-serif" font-size="20" font-weight="700">No AI</text>
      <text x="116" y="390" text-anchor="middle" fill="#6B675F" font-family="Helvetica, Arial, sans-serif" font-size="18">Condition</text>
    </g>

    <g transform="translate(248 140)">
      <text x="116" y="-18" text-anchor="middle" fill="#6B675F" font-family="Helvetica, Arial, sans-serif" font-size="20">p = 0.010*</text>
      <path d="M86 -4h60M86 -4v10M146 -4v10" stroke="#8A847A" stroke-width="2"/>
      <rect x="44" y="0" width="150" height="338" rx="12" fill="#F9F8F3" stroke="#7A766E" stroke-width="2.5"/>
      <g fill="#6B675F" font-family="Helvetica, Arial, sans-serif" font-size="18">
        <text x="14" y="338">40</text>
        <text x="14" y="296">45</text>
        <text x="14" y="254">50</text>
        <text x="14" y="212">55</text>
        <text x="14" y="170">60</text>
        <text x="14" y="128">65</text>
        <text x="14" y="86">70</text>
        <text x="14" y="44">75</text>
      </g>
      <g stroke="#A19B90" stroke-width="2">
        <path d="M44 42h150"/>
        <path d="M44 84h150"/>
        <path d="M44 126h150"/>
        <path d="M44 168h150"/>
        <path d="M44 210h150"/>
        <path d="M44 252h150"/>
        <path d="M44 294h150"/>
      </g>
      <text x="7" y="184" transform="rotate(-90 7 184)" fill="#6B675F" font-family="Helvetica, Arial, sans-serif" font-size="18">Quiz score %</text>
      <path d="M84 174v128" stroke="#78B7F0" stroke-width="3"/>
      <path d="M72 174h24M72 302h24" stroke="#78B7F0" stroke-width="3"/>
      <circle cx="84" cy="258" r="7" fill="#78B7F0"/>
      <path d="M152 90v216" stroke="#F6AE45" stroke-width="3"/>
      <path d="M140 90h24M140 306h24" stroke="#F6AE45" stroke-width="3"/>
      <circle cx="152" cy="132" r="7" fill="#F6AE45"/>
      <text x="84" y="364" text-anchor="middle" fill="#78B7F0" font-family="Helvetica, Arial, sans-serif" font-size="20" font-weight="700">AI</text>
      <text x="152" y="364" text-anchor="middle" fill="#F6AE45" font-family="Helvetica, Arial, sans-serif" font-size="20" font-weight="700">No AI</text>
      <text x="116" y="390" text-anchor="middle" fill="#6B675F" font-family="Helvetica, Arial, sans-serif" font-size="18">Condition</text>
    </g>
  </g>

  <g transform="translate(542 104)">
    <rect width="714" height="604" rx="30" fill="#FBFAF7"/>
    <text x="28" y="48" fill="#6B675F" font-family="Helvetica, Arial, sans-serif" font-size="22" font-weight="700">Modes of AI usage</text>
    <rect x="90" y="102" width="298" height="374" fill="#F5F3ED"/>
    <g stroke="#6B675F" stroke-width="3" fill="none">
      <path d="M94 420h302"/>
      <path d="M94 110v372"/>
    </g>
    <g fill="#6B675F" font-family="Helvetica, Arial, sans-serif" font-size="18">
      <text x="150" y="456">10</text>
      <text x="210" y="456">20</text>
      <text x="270" y="456">30</text>
      <text x="330" y="456">40</text>
      <text x="46" y="422">0</text>
      <text x="34" y="345">20</text>
      <text x="34" y="268">40</text>
      <text x="34" y="191">60</text>
      <text x="34" y="114">100</text>
    </g>
    <text x="239" y="504" text-anchor="middle" fill="#6B675F" font-family="Helvetica, Arial, sans-serif" font-size="18">Completion time (min.)</text>
    <text x="18" y="286" transform="rotate(-90 18 286)" fill="#6B675F" font-family="Helvetica, Arial, sans-serif" font-size="18">Skills quiz score (%)</text>

    <g stroke="#7A766E" stroke-width="3" fill="none">
      <path d="M191 156h262v0"/>
      <path d="M191 229h244"/>
      <path d="M173 241h262"/>
      <path d="M167 340h286"/>
      <path d="M185 356h248"/>
      <path d="M299 398h134"/>
    </g>

    <g font-family="Helvetica, Arial, sans-serif">
      <circle cx="191" cy="156" r="7" fill="#C2B6FF" stroke="#7A766E" stroke-width="2"/>
      <text x="186" y="126" fill="#6B675F" font-size="18">24 min</text>
      <text x="183" y="148" fill="#6B675F" font-size="18">86%</text>

      <circle cx="191" cy="229" r="7" fill="#C9C5BE" stroke="#7A766E" stroke-width="2"/>
      <text x="180" y="198" fill="#6B675F" font-size="18">24 min</text>
      <text x="184" y="220" fill="#6B675F" font-size="18">68%</text>

      <circle cx="173" cy="241" r="7" fill="#F4A889" stroke="#7A766E" stroke-width="2"/>
      <text x="130" y="210" fill="#6B675F" font-size="18">22 min</text>
      <text x="140" y="232" fill="#6B675F" font-size="18">65%</text>

      <circle cx="167" cy="340" r="7" fill="#D8E4DB" stroke="#7A766E" stroke-width="2"/>
      <text x="128" y="309" fill="#6B675F" font-size="18">19.5 min</text>
      <text x="146" y="331" fill="#6B675F" font-size="18">39%</text>

      <circle cx="185" cy="356" r="7" fill="#F7D49A" stroke="#7A766E" stroke-width="2"/>
      <text x="142" y="382" fill="#6B675F" font-size="18">22 min</text>
      <text x="154" y="404" fill="#6B675F" font-size="18">35%</text>

      <circle cx="299" cy="398" r="7" fill="#72B8F4" stroke="#7A766E" stroke-width="2"/>
      <text x="286" y="370" fill="#6B675F" font-size="18">31 min</text>
      <text x="290" y="392" fill="#6B675F" font-size="18">24%</text>
    </g>

    <g font-family="Helvetica, Arial, sans-serif">
      <text x="565" y="94" fill="#141413" font-size="24" font-weight="700">High skill</text>
      <text x="565" y="122" fill="#141413" font-size="24" font-weight="700">development</text>
      <text x="565" y="150" fill="#141413" font-size="24" font-weight="700">interactions</text>

      <g transform="translate(512 142)">
        <circle cx="28" cy="0" r="26" fill="#F0ECE4" stroke="#A39D92" stroke-width="2"/>
        <circle cx="28" cy="0" r="18" fill="#C2B6FF" opacity="0.95"/>
        <circle cx="28" cy="-8" r="9" fill="#E8E3FF" stroke="#7A766E" stroke-width="1.5"/>
        <text x="62" y="-3" fill="#6B675F" font-size="21">Generation-then-</text>
        <text x="62" y="23" fill="#6B675F" font-size="21">comprehension</text>
      </g>

      <g transform="translate(512 214)">
        <circle cx="28" cy="0" r="26" fill="#F0ECE4" stroke="#A39D92" stroke-width="2"/>
        <circle cx="28" cy="0" r="18" fill="#C9C5BE" opacity="0.95"/>
        <circle cx="28" cy="-8" r="9" fill="#EEECE8" stroke="#7A766E" stroke-width="1.5"/>
        <text x="62" y="-3" fill="#6B675F" font-size="21">Hybrid code-</text>
        <text x="62" y="23" fill="#6B675F" font-size="21">explanation</text>
      </g>

      <g transform="translate(512 286)">
        <circle cx="28" cy="0" r="26" fill="#F0ECE4" stroke="#A39D92" stroke-width="2"/>
        <circle cx="28" cy="0" r="18" fill="#F4A889" opacity="0.95"/>
        <circle cx="28" cy="10" r="9" fill="#FFD2C1" stroke="#7A766E" stroke-width="1.5"/>
        <text x="62" y="10" fill="#6B675F" font-size="21">Conceptual inquiry</text>
      </g>

      <text x="565" y="396" fill="#141413" font-size="24" font-weight="700">Low skill</text>
      <text x="565" y="424" fill="#141413" font-size="24" font-weight="700">development</text>
      <text x="565" y="452" fill="#141413" font-size="24" font-weight="700">interactions</text>

      <g transform="translate(512 472)">
        <circle cx="28" cy="0" r="26" fill="#F0ECE4" stroke="#A39D92" stroke-width="2"/>
        <circle cx="28" cy="0" r="18" fill="#F7D49A" opacity="0.95"/>
        <circle cx="28" cy="8" r="9" fill="#FFF0C7" stroke="#7A766E" stroke-width="1.5"/>
        <text x="62" y="10" fill="#6B675F" font-size="21">AI delegation</text>
      </g>

      <g transform="translate(512 544)">
        <circle cx="28" cy="0" r="26" fill="#F0ECE4" stroke="#A39D92" stroke-width="2"/>
        <circle cx="28" cy="0" r="18" fill="#D8E4DB" opacity="0.95"/>
        <circle cx="28" cy="8" r="9" fill="#EDF6F0" stroke="#7A766E" stroke-width="1.5"/>
        <text x="62" y="-3" fill="#6B675F" font-size="21">Progressive</text>
        <text x="62" y="23" fill="#6B675F" font-size="21">AI reliance</text>
      </g>

      <g transform="translate(512 616)">
        <circle cx="28" cy="0" r="26" fill="#F0ECE4" stroke="#A39D92" stroke-width="2"/>
        <circle cx="28" cy="0" r="18" fill="#72B8F4" opacity="0.95"/>
        <circle cx="28" cy="10" r="9" fill="#DCEEFE" stroke="#7A766E" stroke-width="1.5"/>
        <text x="62" y="-3" fill="#6B675F" font-size="21">Iterative AI</text>
        <text x="62" y="23" fill="#6B675F" font-size="21">debugging</text>
      </g>
    </g>
  </g>
</svg>
