<?xml version="1.0" encoding="UTF-8"?>
<svg xmlns="http://www.w3.org/2000/svg" viewBox="0 0 1200 720" role="img" aria-labelledby="title desc">
  <title id="title">표 3.1 출력 길이별 대표 과업</title>
  <desc id="desc">Examples of tasks at different output token index percentiles.</desc>
  <rect width="1200" height="720" fill="#f5f1e8"/>
  <rect x="52" y="52" width="1096" height="616" rx="30" fill="#fffdfa" stroke="#ddd3c4" stroke-width="4"/>
  <rect x="88" y="86" width="168" height="42" rx="21" fill="#788c5d" opacity="0.18"/>
  <text x="172" y="114" text-anchor="middle" fill="#3e4a34" font-family="Arial, sans-serif" font-size="22" font-weight="700">표 3.1</text>
  <text x="136" y="160" fill="#1f1f1a" font-family="Arial, sans-serif" font-size="44" font-weight="700">출력 길이별 대표 과업</text>
<text x="136" y="182" fill="#5f564a" font-family="Arial, sans-serif" font-size="26">출력 토큰 지수의 10·50·90백분위에 해당하는</text>
<text x="136" y="222" fill="#5f564a" font-family="Arial, sans-serif" font-size="26">대표 과업을 통해 길이와 복잡성의 관계를</text>
<text x="136" y="262" fill="#5f564a" font-family="Arial, sans-serif" font-size="26">설명하는 요약 표다.</text>

  <rect x="166" y="246" width="856" height="334" rx="24" fill="#fffdfa" stroke="#d8cebf" stroke-width="4"/>
  <line x1="166" y1="314" x2="1022" y2="314" stroke="#d8cebf" stroke-width="4"/>
  <line x1="166" y1="398" x2="1022" y2="398" stroke="#d8cebf" stroke-width="4"/>
  <line x1="166" y1="482" x2="1022" y2="482" stroke="#d8cebf" stroke-width="4"/>
  <line x1="378" y1="246" x2="378" y2="580" stroke="#d8cebf" stroke-width="4"/>
  <line x1="630" y1="246" x2="630" y2="580" stroke="#d8cebf" stroke-width="4"/>
  <line x1="832" y1="246" x2="832" y2="580" stroke="#d8cebf" stroke-width="4"/>
  <rect x="166" y="246" width="856" height="68" rx="24" fill="#788c5d" opacity="0.18"/>
  <rect x="204" y="344" width="136" height="24" rx="12" fill="#c8bcab"/>
  <rect x="422" y="344" width="170" height="24" rx="12" fill="#c8bcab"/>
  <rect x="676" y="344" width="120" height="24" rx="12" fill="#c8bcab"/>
  <rect x="866" y="344" width="108" height="24" rx="12" fill="#c8bcab"/>
  <rect x="204" y="430" width="120" height="24" rx="12" fill="#c8bcab"/>
  <rect x="422" y="430" width="128" height="24" rx="12" fill="#c8bcab"/>
  <rect x="676" y="430" width="146" height="24" rx="12" fill="#c8bcab"/>
  <rect x="866" y="430" width="88" height="24" rx="12" fill="#c8bcab"/>

  <text x="1068" y="626" text-anchor="end" fill="#7c7366" font-family="Arial, sans-serif" font-size="20">원문 도표·표·식 설명을 바탕으로 재구성한 요약 카드</text>
</svg>