<svg width="1200" height="760" viewBox="0 0 1200 760" fill="none" xmlns="http://www.w3.org/2000/svg">
  <rect width="1200" height="760" fill="#F8F6F1"/>
  <text x="72" y="96" fill="#141413" font-family="Arial, Helvetica, sans-serif" font-size="46" font-weight="700">Abstract Feature Examples</text>
  <text x="72" y="138" fill="#5C5249" font-family="Arial, Helvetica, sans-serif" font-size="28">
    Three features for bugs in code, gender bias, and keeping secrets
  </text>
  <rect x="72" y="188" width="320" height="452" rx="24" fill="white" stroke="#D4CCC0"/>
  <rect x="440" y="188" width="320" height="452" rx="24" fill="white" stroke="#D4CCC0"/>
  <rect x="808" y="188" width="320" height="452" rx="24" fill="white" stroke="#D4CCC0"/>
  <text x="114" y="264" fill="#141413" font-family="Arial, Helvetica, sans-serif" font-size="32" font-weight="700">Code Bugs</text>
  <rect x="114" y="296" width="236" height="176" rx="16" fill="#1E2430"/>
  <text x="136" y="344" fill="#F8F6F1" font-family="Courier New, monospace" font-size="24">if (value &gt; limit) {</text>
  <text x="136" y="382" fill="#F8F6F1" font-family="Courier New, monospace" font-size="24">  return result;</text>
  <text x="136" y="420" fill="#F28B5C" font-family="Courier New, monospace" font-size="24">}</text>
  <text x="136" y="458" fill="#F8F6F1" font-family="Courier New, monospace" font-size="24">throw new Error(...)</text>
  <text x="482" y="264" fill="#141413" font-family="Arial, Helvetica, sans-serif" font-size="32" font-weight="700">Gender Bias</text>
  <circle cx="600" cy="382" r="82" fill="#E7E0F1"/>
  <circle cx="562" cy="382" r="18" fill="#8F79C0"/>
  <circle cx="638" cy="382" r="18" fill="#C06B6B"/>
  <path d="M564 438C586 412 614 412 636 438" stroke="#5C5249" stroke-width="5" stroke-linecap="round"/>
  <text x="520" y="520" fill="#5C5249" font-family="Arial, Helvetica, sans-serif" font-size="24">profession stereotypes</text>
  <text x="850" y="264" fill="#141413" font-family="Arial, Helvetica, sans-serif" font-size="32" font-weight="700">Keeping Secrets</text>
  <rect x="900" y="306" width="132" height="176" rx="20" fill="#D9E6F2" stroke="#5C5249" stroke-width="4"/>
  <path d="M930 306C930 270 958 244 996 244C1034 244 1062 270 1062 306" stroke="#5C5249" stroke-width="8"/>
  <circle cx="966" cy="392" r="14" fill="#5C5249"/>
  <rect x="960" y="392" width="12" height="46" rx="6" fill="#5C5249"/>
  <text x="140" y="580" fill="#7B7067" font-family="Arial, Helvetica, sans-serif" font-size="24">
    Feature activations can encode concrete syntax and abstract social concepts alike.
  </text>
</svg>
